<?xml version="1.0" encoding="UTF-8"?>
<!DOCTYPE svg PUBLIC "-//W3C//DTD SVG 1.1//EN" "http://www.w3.org/Graphics/SVG/1.1/DTD/svg11.dtd">
<!-- Creator: CorelDRAW 2021 (64-Bit) -->
<svg xmlns="http://www.w3.org/2000/svg" xml:space="preserve" width="0.737161in" height="0.30885in" version="1.1" style="shape-rendering:geometricPrecision; text-rendering:geometricPrecision; image-rendering:optimizeQuality; fill-rule:evenodd; clip-rule:evenodd"
viewBox="0 0 511.28 214.21"
 xmlns:xlink="http://www.w3.org/1999/xlink"
 xmlns:xodm="http://www.corel.com/coreldraw/odm/2003">
 <defs>
  <style type="text/css">
   <![CDATA[
    .fil1 {fill:#FF4E4D}
    .fil0 {fill:white}
   ]]>
  </style>
 </defs>
 <g id="Layer_x0020_1">
  <metadata id="CorelCorpID_0Corel-Layer"/>
  <g id="_2522043236432">
   <path class="fil0" d="M130.5 208.52l-14.9 0 1.33 -6.51 14.26 0 0.98 -5.1 -14.22 0 1.2 -6.12 14.73 0 1.03 -5.22 -20.47 0 -5.65 28.18 20.68 0 1.03 -5.22zm38.86 5.22l6.08 0 15.76 -28.18 -6.47 0 -11.09 20.6 -0.08 0 -2.87 -20.6 -5.82 0 4.5 28.18zm68.5 -5.22l-14.91 0 1.33 -6.51 14.26 0 0.98 -5.1 -14.22 0 1.2 -6.12 14.73 0 1.03 -5.22 -20.47 0 -5.65 28.18 20.68 0 1.03 -5.22zm30.72 5.22l5.82 0 3.94 -19.53 9.51 19.53 5.7 0 5.65 -28.18 -5.87 0 -3.72 18.76 -9.42 -18.76 -5.95 0 -5.65 28.18zm84.69 -28.18l-22.78 0 -1.07 5.31 8.52 0 -4.58 22.87 5.78 0 4.58 -22.87 8.48 0 1.07 -5.31zm49.23 2.95c-1.58,-2.14 -5.4,-3.64 -9.38,-3.64 -5.95,0 -10.19,3.04 -11.18,8.01 -1.07,5.27 3.25,7.24 7.97,8.91 3.08,1.11 4.67,2.27 4.33,4.11 -0.39,2.06 -2.31,3.17 -5.4,3.17 -2.95,0 -6.04,-1.2 -7.37,-2.91l-4.15 3.94c2.01,2.48 6.21,4.11 10.62,4.11 6.47,0 11.18,-3.17 12.21,-8.35 1.16,-5.7 -4.07,-7.45 -8.65,-9.25 -2.65,-1.07 -3.94,-2.23 -3.6,-3.94 0.39,-1.71 1.93,-2.65 4.41,-2.65 2.36,0 4.88,0.99 6.04,2.35l4.15 -3.85z"/>
   <polygon class="fil0" points="19.47,38.72 132.41,38.72 114.54,65.88 15.06,65.88 "/>
   <polygon class="fil0" points="143.97,38.72 256.9,38.72 239.03,65.88 139.55,65.88 "/>
   <path class="fil0" d="M108.87 103.59l-57.17 0 -15.55 58.01 -36.15 -23.71 5.85 -26.64c4.31,-19.63 20.45,-34.82 41.31,-34.82l0.09 0 0 0 66.02 0 -4.41 27.16z"/>
   <path class="fil0" d="M165.24 74.22c23.29,0.09 45.78,-0 69.09,-0l-4.41 27.16 -40.46 0 -10.11 0c-10.69,0 -14.87,16.12 -4.18,16.12l9.2 0 52.06 0 -5.67 27.16 -79.47 -0.01c-17.31,-0 -37.12,-16.32 -26.36,-41.6 6.95,-16.31 21.81,-28.9 40.31,-28.83z"/>
   <path class="fil0" d="M340.7 38.72l-77.41 0 6.66 27.16 39.36 0 9.6 0c13.27,0 9.79,21.4 -4.36,21.4l-10.54 0 -10.47 0 -10.83 -0.04c-20.86,-0.08 -31.42,13.66 -36.23,34.82l-4.9 21.59 38.14 18.01 8.93 -43.93c1.56,-7.68 6.09,-5.4 7.49,0.03l6.94 27.08 47.95 0 -10.8 -34.12c14.13,-3.84 25.24,-14.98 31.06,-28.62 11.23,-26.35 -9.43,-43.87 -27.48,-43.37l-3.12 0.09 0.02 -0.1z"/>
   <path class="fil0" d="M423.69 40.27l3.27 0c1.83,-2.15 4.02,-3.97 6.47,-5.34l-5.67 -13.07 -4.35 -10.03c-0.41,0.09 -0.83,0.14 -1.26,0.14 -3.3,0 -5.98,-2.68 -5.98,-5.98 0,-3.3 2.68,-5.98 5.98,-5.98 3.31,0 5.98,2.68 5.98,5.98 0,1.48 -0.54,2.84 -1.43,3.88l6.43 9.36 8.88 12.92c0.84,-0.1 1.7,-0.14 2.56,-0.14 0.62,0 1.23,0.02 1.83,0.07l9.74 -12.54 6.97 -8.97c-0.83,-1.09 -1.29,-2.48 -1.2,-3.96 0.19,-3.3 3.02,-5.82 6.32,-5.62 3.3,0.19 5.82,3.02 5.62,6.32 -0.19,3.3 -3.02,5.82 -6.32,5.62 -0.43,-0.02 -0.85,-0.1 -1.25,-0.21l-4.93 9.76 -6.15 12.17c2.65,1.4 5.02,3.32 6.98,5.62l4.16 0c3.19,0 6.3,0.35 9.3,1 -0.87,2.51 -1.35,5.2 -1.35,8 0,13.45 10.91,24.36 24.36,24.36 3.44,0 6.72,-0.72 9.69,-2 1.18,3.95 1.82,8.13 1.82,12.46l0 32.21c0,24.1 -19.72,43.82 -43.82,43.82l-42.67 0c-24.1,0 -43.82,-19.72 -43.82,-43.82l0 -32.21c0,-24.1 19.72,-43.82 43.82,-43.82zm38.8 60.09l-16.68 16.58 -2.51 -2.53 16.68 -16.58 2.51 2.53zm-2.23 -16.44l-32.63 32.42 -2.51 -2.53 32.63 -32.42 2.51 2.53zm-15.24 -21.98c21.13,0 38.26,17.13 38.26,38.26 0,21.13 -17.13,38.26 -38.26,38.26 -5.54,0 -10.8,-1.18 -15.55,-3.3l-20.64 0 0 -22.54c-1.34,-3.9 -2.06,-8.07 -2.06,-12.42 0,-21.13 17.13,-38.26 38.26,-38.26z"/>
   <path class="fil1" d="M498.68 36.68c6.96,0 12.6,5.64 12.6,12.6 0,6.96 -5.64,12.6 -12.6,12.6 -6.96,0 -12.6,-5.64 -12.6,-12.6 0,-6.96 5.64,-12.6 12.6,-12.6z"/>
  </g>
 </g>
</svg>
