<?xml version="1.0" encoding="UTF-8"?>
<!DOCTYPE svg PUBLIC "-//W3C//DTD SVG 1.1//EN" "http://www.w3.org/Graphics/SVG/1.1/DTD/svg11.dtd">
<!-- Creator: CorelDRAW 2021 (64-Bit) -->
<svg xmlns="http://www.w3.org/2000/svg" xml:space="preserve" width="0.737161in" height="0.30885in" version="1.1" style="shape-rendering:geometricPrecision; text-rendering:geometricPrecision; image-rendering:optimizeQuality; fill-rule:evenodd; clip-rule:evenodd"
viewBox="0 0 133.16 55.79"
 xmlns:xlink="http://www.w3.org/1999/xlink"
 xmlns:xodm="http://www.corel.com/coreldraw/odm/2003">
 <defs>
  <style type="text/css">
   <![CDATA[
    .fil0 {fill:#1D2340}
    .fil1 {fill:#FF4E4D}
   ]]>
  </style>
 </defs>
 <g id="Layer_x0020_1">
  <metadata id="CorelCorpID_0Corel-Layer"/>
  <g id="_2521963317984">
   <path class="fil0" d="M33.99 54.31l-3.88 0 0.35 -1.7 3.71 0 0.26 -1.33 -3.7 0 0.31 -1.6 3.84 0 0.27 -1.36 -5.33 0 -1.47 7.34 5.39 0 0.27 -1.36zm10.12 1.36l1.58 0 4.1 -7.34 -1.68 0 -2.89 5.37 -0.02 0 -0.75 -5.37 -1.52 0 1.17 7.34zm17.84 -1.36l-3.88 0 0.35 -1.7 3.71 0 0.26 -1.33 -3.7 0 0.31 -1.6 3.84 0 0.27 -1.36 -5.33 0 -1.47 7.34 5.39 0 0.27 -1.36zm8 1.36l1.52 0 1.03 -5.09 2.48 5.09 1.48 0 1.47 -7.34 -1.53 0 -0.97 4.89 -2.45 -4.89 -1.55 0 -1.47 7.34zm22.06 -7.34l-5.93 0 -0.28 1.38 2.22 0 -1.19 5.96 1.51 0 1.19 -5.96 2.21 0 0.28 -1.38zm12.82 0.77c-0.41,-0.56 -1.41,-0.95 -2.44,-0.95 -1.55,0 -2.65,0.79 -2.91,2.09 -0.28,1.37 0.85,1.89 2.07,2.32 0.8,0.29 1.22,0.59 1.13,1.07 -0.1,0.54 -0.6,0.82 -1.41,0.82 -0.77,0 -1.57,-0.31 -1.92,-0.76l-1.08 1.03c0.52,0.65 1.62,1.07 2.77,1.07 1.68,0 2.91,-0.83 3.18,-2.18 0.3,-1.48 -1.06,-1.94 -2.25,-2.41 -0.69,-0.28 -1.03,-0.58 -0.94,-1.03 0.1,-0.45 0.5,-0.69 1.15,-0.69 0.61,0 1.27,0.26 1.57,0.61l1.08 -1z"/>
   <polygon class="fil0" points="5.07,10.09 34.48,10.09 29.83,17.16 3.92,17.16 "/>
   <polygon class="fil0" points="37.5,10.09 66.91,10.09 62.26,17.16 36.35,17.16 "/>
   <path class="fil0" d="M28.35 26.98l-14.89 0 -4.05 15.11 -9.41 -6.18 1.52 -6.94c1.12,-5.11 5.33,-9.07 10.76,-9.07l0.02 0 0 0 17.2 0 -1.15 7.07z"/>
   <path class="fil0" d="M43.04 19.33c6.07,0.02 11.92,-0 17.99,-0l-1.15 7.07 -10.54 0 -2.63 0c-2.78,0 -3.87,4.2 -1.09,4.2l2.4 0 13.56 0 -1.48 7.07 -20.7 -0c-4.51,-0 -9.67,-4.25 -6.86,-10.83 1.81,-4.25 5.68,-7.53 10.5,-7.51z"/>
   <path class="fil0" d="M88.73 10.09l-20.16 0 1.73 7.07 10.25 0 2.5 0c3.46,0 2.55,5.57 -1.14,5.57l-2.74 0 -2.73 0 -2.82 -0.01c-5.43,-0.02 -8.18,3.56 -9.44,9.07l-1.28 5.62 9.93 4.69 2.32 -11.44c0.41,-2 1.59,-1.41 1.95,0.01l1.81 7.05 12.49 0 -2.81 -8.89c3.68,-1 6.57,-3.9 8.09,-7.45 2.92,-6.86 -2.46,-11.43 -7.16,-11.3l-0.81 0.02 0.01 -0.03z"/>
   <path class="fil0" d="M110.35 10.49l0.85 0c0.48,-0.56 1.05,-1.03 1.69,-1.39l-1.48 -3.4 -1.13 -2.61c-0.11,0.02 -0.22,0.04 -0.33,0.04 -0.86,0 -1.56,-0.7 -1.56,-1.56 0,-0.86 0.7,-1.56 1.56,-1.56 0.86,0 1.56,0.7 1.56,1.56 0,0.39 -0.14,0.74 -0.37,1.01l1.68 2.44 2.31 3.36c0.22,-0.02 0.44,-0.04 0.67,-0.04 0.16,0 0.32,0.01 0.48,0.02l2.54 -3.27 1.82 -2.34c-0.22,-0.29 -0.34,-0.65 -0.31,-1.03 0.05,-0.86 0.79,-1.51 1.65,-1.46 0.86,0.05 1.51,0.79 1.46,1.65 -0.05,0.86 -0.79,1.51 -1.65,1.46 -0.11,-0.01 -0.22,-0.03 -0.33,-0.05l-1.28 2.54 -1.6 3.17c0.69,0.37 1.31,0.86 1.82,1.46l1.08 0c0.83,0 1.64,0.09 2.42,0.26 -0.23,0.65 -0.35,1.35 -0.35,2.08 0,3.5 2.84,6.34 6.34,6.34 0.9,0 1.75,-0.19 2.52,-0.52 0.31,1.03 0.47,2.12 0.47,3.24l0 8.39c0,6.28 -5.14,11.41 -11.41,11.41l-11.11 0c-6.28,0 -11.41,-5.14 -11.41,-11.41l0 -8.39c0,-6.28 5.13,-11.41 11.41,-11.41zm10.11 15.65l-4.34 4.32 -0.66 -0.66 4.35 -4.32 0.65 0.66zm-0.58 -4.28l-8.5 8.44 -0.65 -0.66 8.5 -8.44 0.65 0.66zm-3.97 -5.73c5.5,0 9.96,4.46 9.96,9.96 0,5.5 -4.46,9.96 -9.96,9.96 -1.44,0 -2.81,-0.31 -4.05,-0.86l-5.38 0 0 -5.87c-0.35,-1.01 -0.54,-2.1 -0.54,-3.23 0,-5.5 4.46,-9.96 9.96,-9.96z"/>
   <path class="fil1" d="M129.88 9.55c1.81,0 3.28,1.47 3.28,3.28 0,1.81 -1.47,3.28 -3.28,3.28 -1.81,0 -3.28,-1.47 -3.28,-3.28 0,-1.81 1.47,-3.28 3.28,-3.28z"/>
  </g>
 </g>
</svg>
