<?xml version="1.0" encoding="UTF-8"?>
<!DOCTYPE svg PUBLIC "-//W3C//DTD SVG 1.1//EN" "http://www.w3.org/Graphics/SVG/1.1/DTD/svg11.dtd">
<!-- Creator: CorelDRAW 2021 (64-Bit) -->
<svg xmlns="http://www.w3.org/2000/svg" xml:space="preserve" width="0.348925in" height="0.42515in" version="1.1" style="shape-rendering:geometricPrecision; text-rendering:geometricPrecision; image-rendering:optimizeQuality; fill-rule:evenodd; clip-rule:evenodd"
viewBox="0 0 14.1 17.18"
 xmlns:xlink="http://www.w3.org/1999/xlink"
 xmlns:xodm="http://www.corel.com/coreldraw/odm/2003">
 <defs>
  <style type="text/css">
   <![CDATA[
    .fil0 {fill:#1D2340}
    .fil1 {fill:#FF4E4D}
   ]]>
  </style>
 </defs>
 <g id="Layer_x0020_1">
  <metadata id="CorelCorpID_0Corel-Layer"/>
  <g id="_2522267926016">
   <path class="fil0" d="M4.7 4.32l0.35 0c0.2,-0.23 0.43,-0.43 0.69,-0.57l-0.61 -1.4 -0.47 -1.08c-0.04,0.01 -0.09,0.01 -0.14,0.01 -0.35,0 -0.64,-0.29 -0.64,-0.64 0,-0.35 0.29,-0.64 0.64,-0.64 0.35,0 0.64,0.29 0.64,0.64 0,0.16 -0.06,0.3 -0.15,0.42l0.69 1 0.95 1.39c0.09,-0.01 0.18,-0.02 0.28,-0.02 0.07,0 0.13,0 0.2,0.01l1.05 -1.35 0.75 -0.96c-0.09,-0.12 -0.14,-0.27 -0.13,-0.42 0.02,-0.35 0.32,-0.62 0.68,-0.6 0.35,0.02 0.62,0.32 0.6,0.68 -0.02,0.35 -0.32,0.62 -0.68,0.6 -0.05,-0 -0.09,-0.01 -0.13,-0.02l-0.53 1.05 -0.66 1.31c0.28,0.15 0.54,0.36 0.75,0.6l0.45 0c0.34,0 0.68,0.04 1,0.11 -0.09,0.27 -0.14,0.56 -0.14,0.86 0,1.44 1.17,2.61 2.61,2.61 0.37,0 0.72,-0.08 1.04,-0.22 0.13,0.42 0.2,0.87 0.2,1.34l0 3.46c0,2.59 -2.12,4.7 -4.7,4.7l-4.58 0c-2.59,0 -4.7,-2.12 -4.7,-4.7l0 -3.46c0,-2.59 2.12,-4.7 4.7,-4.7zm4.16 6.45l-1.79 1.78 -0.27 -0.27 1.79 -1.78 0.27 0.27zm-0.24 -1.76l-3.5 3.48 -0.27 -0.27 3.5 -3.48 0.27 0.27zm-1.63 -2.36c2.27,0 4.1,1.84 4.1,4.11 0,2.27 -1.84,4.1 -4.1,4.1 -0.59,0 -1.16,-0.13 -1.67,-0.35l-2.22 0 0 -2.42c-0.14,-0.42 -0.22,-0.87 -0.22,-1.33 0,-2.27 1.84,-4.11 4.11,-4.11z"/>
   <path class="fil1" d="M12.75 3.94c0.75,0 1.35,0.61 1.35,1.35 0,0.75 -0.61,1.35 -1.35,1.35 -0.75,0 -1.35,-0.61 -1.35,-1.35 0,-0.75 0.61,-1.35 1.35,-1.35z"/>
  </g>
 </g>
</svg>
